<?xml version="1.0" encoding="utf-8"?>
<!-- Generator: Adobe Illustrator 19.1.0, SVG Export Plug-In . SVG Version: 6.00 Build 0)  -->
<svg version="1.1" id="Layer_1" xmlns:sketch="http://www.bohemiancoding.com/sketch/ns"
	 xmlns="http://www.w3.org/2000/svg" xmlns:xlink="http://www.w3.org/1999/xlink" x="0px" y="0px" viewBox="185 37 988 714"
	 style="enable-background:new 185 37 988 714;" xml:space="preserve">
<style type="text/css">
	.st0{fill:#201E5A;}
	.st1{font-family:'AmasisMT';}
	.st2{font-size:21px;}
</style>
<title>Trained at Accomplis + Before becoming a co + Nesreen Mahmoud, Fou</title>
<desc>Created with Sketch.</desc>
<g id="Page-1" sketch:type="MSPage">
	<g id="Artboard-2" transform="translate(-267.000000, -194.000000)" sketch:type="MSArtboardGroup">
		
			<g id="Trained-at-Accomplis-_x2B_-Before-becoming-a-co-_x2B_-Nesreen-Mahmoud_x2C_-Fou" transform="translate(267.000000, 184.000000)" sketch:type="MSLayerGroup">
			<text transform="matrix(1 0 0 1 212 154)" class="st0 st1 st2">Trained at Accomplishment Coaching and The Grief </text>
			<text transform="matrix(1 0 0 1 212 185)" class="st0 st1 st2">Recovery Institute®, Nesreen offers a unique blend of life </text>
			<text transform="matrix(1 0 0 1 212 216)" class="st0 st1 st2">and bereavement coaching that helps her clients move </text>
			<text transform="matrix(1 0 0 1 212 247)" class="st0 st1 st2">through difficult experiences and remove the obstacles to </text>
			<text transform="matrix(1 0 0 1 212 278)" class="st0 st1 st2">becoming their most authentic, empowered selves. She has </text>
			<text transform="matrix(1 0 0 1 212 309)" class="st0 st1 st2">also studied psychology and childhood development at The </text>
			<text transform="matrix(1 0 0 1 212 340)" class="st0 st1 st2">New School University, speech pathology at The University </text>
			<text transform="matrix(1 0 0 1 212 371)" class="st0 st1 st2">of Southern Florida and Utah State University, and </text>
			<text transform="matrix(1 0 0 1 212 402)" class="st0 st1 st2">international relations at The College of William and Mary. </text>
			<text transform="matrix(1 0 0 1 212 433)" class="st0 st1 st2">She founded Harbor Light Coaching in 2015.</text>
			<text transform="matrix(1 0 0 1 212 599)" class="st0 st1 st2">Before becoming a coach, Nesreen spent 15 years working as a costumer for the Broadway stage, television, </text>
			<text transform="matrix(1 0 0 1 212 630)" class="st0 st1 st2">and film. She’s worked on shows including Beautiful: The Carole King Musical, Monty Python’s Spamalot, </text>
			<text transform="matrix(1 0 0 1 212 661)" class="st0 st1 st2">The Producers, The Radio City Christmas Spectacular, Madame Secretary, and The Affair. </text>
			<text transform="matrix(1 0 0 1 212 723)" class="st0 st1 st2">Nesreen lives in New York City and San Francisco where she enjoys hiking, running and working with </text>
			<text transform="matrix(1 0 0 1 212 754)" class="st0 st1 st2">animals.</text>
			<text transform="matrix(1 0 0 1 185 67)" class="st0 st1 st2">Nesreen Mahmoud, Founder</text>
		</g>
	</g>
</g>
</svg>
