<?xml version="1.0" encoding="utf-8"?>
<!-- Generator: Adobe Illustrator 19.1.0, SVG Export Plug-In . SVG Version: 6.00 Build 0)  -->
<svg version="1.1" id="Layer_1" xmlns:sketch="http://www.bohemiancoding.com/sketch/ns"
	 xmlns="http://www.w3.org/2000/svg" xmlns:xlink="http://www.w3.org/1999/xlink" x="0px" y="0px" viewBox="181 -14.9 981.6 817.7"
	 style="enable-background:new 181 -14.9 981.6 817.7;" xml:space="preserve">
<style type="text/css">
	.st0{fill:#201E5A;}
	.st1{font-family:'AmasisMT';}
	.st2{font-size:21px;}
	.st3{fill:#FFFFFF;}
</style>
<title>Group</title>
<desc>Created with Sketch.</desc>
<g id="Page-1" sketch:type="MSPage">
	<g id="Artboard-3" transform="translate(-416.000000, -183.000000)" sketch:type="MSArtboardGroup">
		<g id="Group" transform="translate(417.000000, 173.000000)" sketch:type="MSLayerGroup">
			<text transform="matrix(1 0 0 1 202 79)" class="st0 st1 st2">If your career seems stagnant and out of control, the end of a relationship or loss of a loved one has left </text>
			<text transform="matrix(1 0 0 1 202 110)" class="st0 st1 st2">you debilitated, or the next step on your journey seems impossible to find, coaching can help. Nesreen asks </text>
			<text transform="matrix(1 0 0 1 202 141)" class="st0 st1 st2">questions, provides insights, and will help you identify the patterns of thought and actions that are </text>
			<text transform="matrix(1 0 0 1 202 172)" class="st0 st1 st2">preventing you from moving forward. This is a co-creative, dynamic process; there’s no script and no two </text>
			<text transform="matrix(1 0 0 1 202 203)" class="st0 st1 st2">conversations will be the same. It won’t be easy, but every session will bring you one step closer to realizing </text>
			<text transform="matrix(1 0 0 1 202 234)" class="st0 st1 st2">your own potential.</text>
			<text transform="matrix(1 0 0 1 205 453)" class="st3 st1 st2">LIFE COACHING</text>
			<text transform="matrix(1 0 0 1 363.5664 453)" class="st3 st1 st2"> </text>
			<text transform="matrix(1 0 0 1 205 484)" class="st3 st1 st2">Ready to challenge what’s predictable to create what’s possible? Let’s partner in identifying what you truly </text>
			<text transform="matrix(1 0 0 1 205 515)" class="st3 st1 st2">want for your life and then create actions to get you where you want to be.</text>
			<text transform="matrix(1 0 0 1 861.6602 515)" class="st3 st1 st2"> </text>
			<text transform="matrix(1 0 0 1 205 577)" class="st3 st1 st2">CAREER COACHING</text>
			<text transform="matrix(1 0 0 1 399.8652 577)" class="st3 st1 st2"> </text>
			<text transform="matrix(1 0 0 1 205 608)" class="st3 st1 st2">Feeling trapped in your current job? Just starting a new career, and overwhelmed with the changes </text>
			<text transform="matrix(1 0 0 1 205 639)" class="st3 st1 st2">involved? Let’s finds ways to help you attain the success you want.</text>
			<text transform="matrix(1 0 0 1 791.4107 639)" class="st3 st1 st2"> </text>
			<text transform="matrix(1 0 0 1 205 701)" class="st3 st1 st2">GRIEF RECOVERY</text>
			<text transform="matrix(1 0 0 1 378.7217 701)" class="st3 st1 st2"> </text>
			<text transform="matrix(1 0 0 1 205 732)" class="st3 st1 st2">There’s nothing more debilitating than the loss of a loved one. We’ll find ways to understand grief and </text>
			<text transform="matrix(1 0 0 1 205 763)" class="st3 st1 st2">move through the process in a more powerful and meaningful way, using the proven method of the Grief </text>
			<text transform="matrix(1 0 0 1 205 794)" class="st3 st1 st2">Recovery Institute®.</text>
			<text transform="matrix(1 0 0 1 181 382)" class="st0 st1 st2">OUR SERVICES INCLUDE</text>
			<text transform="matrix(1 0 0 1 181 16)" class="st0 st1 st2">WHY COACHING?</text>
		</g>
	</g>
</g>
</svg>
